<?xml version="1.0" encoding="UTF-8"?>
<svg id="_Слой_2" data-name="Слой 2" xmlns="http://www.w3.org/2000/svg" viewBox="0 0 1080 783.55">
  <defs>
    <style>
      .cls-1 {
        fill: #fff;
      }

      .cls-2 {
        fill: #526ed2;
      }
    </style>
  </defs>
  <g id="_Слой_1-2" data-name="Слой 1">
    <g>
      <g>
        <path class="cls-1" d="M134.88,124.92H0V7.54H165.96v30.78H30.78v55.82H165.96v124.62H0v-30.78H134.88v-63.06Z"/>
        <path class="cls-1" d="M309.04,225.7c-62.46,0-112.85-50.69-112.85-112.85S246.58,0,309.04,0s112.85,50.39,112.85,112.85-50.69,112.85-112.85,112.85Zm-57.33-55.82c15.39,15.39,35.61,23.84,57.33,23.84s41.94-8.45,57.33-23.84c15.39-15.09,23.54-35.61,23.54-57.03s-8.15-42.24-23.54-57.33c-15.39-15.39-35.61-23.84-57.33-23.84s-41.94,8.45-57.33,23.84c-15.39,15.09-23.84,35.61-23.84,57.33s8.45,41.94,23.84,57.03Z"/>
        <path class="cls-1" d="M556.51,225.4c-62.16,0-112.55-50.39-112.55-112.55S494.35,.3,556.51,.3c52.8,0,97.16,36.21,109.53,85.09h-33.19c-4.22-11.17-10.56-21.12-19.01-29.87-15.39-15.09-35.61-23.54-57.33-23.54s-41.94,8.45-57.03,23.54c-15.39,15.39-23.84,35.61-23.84,57.33s8.45,41.94,23.84,57.33c15.09,15.09,35.61,23.53,57.03,23.53s41.94-8.45,57.33-23.53c8.15-8.15,14.18-17.5,18.11-27.76h33.49c-12.98,47.67-56.73,82.98-108.93,82.98Z"/>
        <path class="cls-1" d="M734.08,189.19h27.46v29.57h-85.39v-29.57h27.76V38.62h-27.76V7.54h85.39v31.08h-27.46V189.19Z"/>
        <path class="cls-1" d="M791.38,218.76V7.54h139.1V218.76h-31.08v-89.92h-77.24v89.92h-30.78Zm30.78-121h77.24V38.62h-77.24v59.14Z"/>
        <path class="cls-1" d="M1080,189.19v29.57h-103.5V7.54h31.68V189.19h71.81Z"/>
      </g>
      <g>
        <path class="cls-2" d="M55.82,314.83h-22.63v182.85H0v-211.22H84.19l20.82,183.15h22.93l-.3-183.15h32.29v211.22H75.74l-19.92-182.85Z"/>
        <path class="cls-2" d="M305.24,504.63c-62.46,0-112.85-50.39-112.85-112.85s50.39-112.85,112.85-112.85,112.85,50.39,112.85,112.85c0,3.62-.3,7.24-.6,10.56H224.98c2.11,17.8,10.26,34.1,22.93,46.77,15.39,15.39,35.61,23.84,57.33,23.84s41.94-8.45,57.33-23.84c4.53-4.83,8.75-9.96,12.07-15.39l34.1,2.71c-17.2,40.13-57.03,68.19-103.5,68.19Zm-57.33-170.18c-10.26,10.26-17.5,23.23-21.12,36.81h156.91c-3.62-13.58-10.86-26.55-21.12-36.81-15.39-15.39-35.61-23.84-57.33-23.84s-41.94,8.45-57.33,23.84Z"/>
        <path class="cls-2" d="M512.78,317.55v180.14h-30.78v-180.14h-54.92v-31.08h140.61v31.08h-54.91Z"/>
      </g>
      <g>
        <path class="cls-2" d="M165.35,748.85h18.11v-183.46h31.98v211.22h-79.36l-19.61-182.25h-17.5l-19.61,182.25H0v-211.22H33.19l-.6,182.85h17.8l21.73-182.85h72.11l21.12,183.46Z"/>
        <path class="cls-2" d="M359.59,783.55c-62.46,0-112.85-50.69-112.85-112.85s50.39-112.85,112.85-112.85,112.85,50.39,112.85,112.85-50.69,112.85-112.85,112.85Zm-57.33-55.82c15.39,15.39,35.61,23.84,57.33,23.84s41.94-8.45,57.33-23.84c15.39-15.09,23.54-35.61,23.54-57.03s-8.15-42.24-23.54-57.33c-15.39-15.39-35.61-23.84-57.33-23.84s-41.94,8.45-57.33,23.84c-15.39,15.09-23.84,35.61-23.84,57.33s8.45,41.94,23.84,57.03Z"/>
        <path class="cls-2" d="M503.58,776.61v-211.22h58.24c20.82,0,39.53,8.45,54.61,22.63,14.78,14.18,22.63,34.1,22.63,54.31s-7.85,40.13-22.63,54.92c-7.54,7.54-16.6,12.97-26.25,16.9l50.69,62.46h-41.04l-45.86-57.03h-18.71v57.03h-31.68Zm31.68-88.71h26.55c25.04,0,45.86-20.52,45.86-45.56s-20.82-45.26-45.86-45.26h-26.55v90.82Z"/>
        <path class="cls-2" d="M869.47,597.98l-159.32,72.72,159.32,72.42v35.6l-165.35-74.83v72.72h-31.08v-211.22h31.08v72.42l165.35-75.13v35.3Z"/>
      </g>
    </g>
  </g>
</svg>