<svg width="23" height="26" viewBox="0 0 23 26" fill="none" xmlns="http://www.w3.org/2000/svg">
<path id="bell" d="M22.6898 17.5656C21.6915 15.7685 21.1613 13.189 21.1613 10.1111C21.1613 7.42948 20.1434 4.85768 18.3316 2.96148C16.5199 1.06527 14.0625 0 11.5003 0C8.93805 0 6.48074 1.06527 4.66895 2.96148C2.85717 4.85768 1.83932 7.42948 1.83932 10.1111C1.83932 13.1902 1.31142 15.7685 0.313115 17.5656C0.109408 17.9322 0.00142718 18.3484 1.40506e-05 18.7724C-0.00139908 19.1965 0.103805 19.6135 0.305064 19.9815C0.50505 20.3497 0.795318 20.6554 1.1459 20.867C1.49648 21.0786 1.89467 21.1885 2.29937 21.1852H20.7012C21.1053 21.1878 21.5028 21.0777 21.8527 20.8661C22.2027 20.6545 22.4924 20.3492 22.6921 19.9815C22.8942 19.614 23.0004 19.1973 23 18.7732C22.9996 18.3492 22.8926 17.9327 22.6898 17.5656ZM3.06534 18.2963C4.0832 16.1296 4.5996 13.378 4.5996 10.1111C4.5996 8.19566 5.32663 6.35866 6.62077 5.00423C7.9149 3.6498 9.67012 2.88889 11.5003 2.88889C13.3305 2.88889 15.0857 3.6498 16.3798 5.00423C17.674 6.35866 18.401 8.19566 18.401 10.1111C18.401 13.3768 18.9162 16.1296 19.9341 18.2963H3.06534ZM16.5608 24.5556C16.5608 24.9386 16.4154 25.306 16.1566 25.5769C15.8977 25.8478 15.5467 26 15.1807 26H7.81992C7.45389 26 7.10284 25.8478 6.84402 25.5769C6.58519 25.306 6.43978 24.9386 6.43978 24.5556C6.43978 24.1725 6.58519 23.8051 6.84402 23.5342C7.10284 23.2633 7.45389 23.1111 7.81992 23.1111H15.1807C15.5467 23.1111 15.8977 23.2633 16.1566 23.5342C16.4154 23.8051 16.5608 24.1725 16.5608 24.5556Z" fill="#717B9F"/>
</svg>
