<svg width="21" height="24" viewBox="0 0 21 24" fill="none" xmlns="http://www.w3.org/2000/svg">
<path id="icon" d="M7.81348 3.225L9.24082 6H6.23438C5.32793 6 4.59375 5.16094 4.59375 4.125C4.59375 3.08906 5.32793 2.25 6.23438 2.25H6.32461C6.93574 2.25 7.50586 2.62031 7.81348 3.225ZM2.625 4.125C2.625 4.8 2.76855 5.4375 3.01875 6H1.3125C0.586523 6 0 6.67031 0 7.5V10.5C0 11.3297 0.586523 12 1.3125 12H19.6875C20.4135 12 21 11.3297 21 10.5V7.5C21 6.67031 20.4135 6 19.6875 6H17.9812C18.2314 5.4375 18.375 4.8 18.375 4.125C18.375 1.84687 16.759 0 14.7656 0H14.6754C13.367 0 12.1529 0.792188 11.4885 2.08125L10.5 4.00781L9.51152 2.08594C8.84707 0.792188 7.63301 0 6.32461 0H6.23438C4.24102 0 2.625 1.84687 2.625 4.125ZM16.4062 4.125C16.4062 5.16094 15.6721 6 14.7656 6H11.7592L13.1865 3.225C13.4982 2.62031 14.0643 2.25 14.6754 2.25H14.7656C15.6721 2.25 16.4062 3.08906 16.4062 4.125ZM1.3125 13.5V21.75C1.3125 22.9922 2.19434 24 3.28125 24H9.1875V13.5H1.3125ZM11.8125 24H17.7188C18.8057 24 19.6875 22.9922 19.6875 21.75V13.5H11.8125V24Z" fill="#526ED3"/>
</svg>
