<svg width="26" height="24" viewBox="0 0 26 24" fill="none" xmlns="http://www.w3.org/2000/svg">
<path id="Vector" d="M21.2727 7.2V4.8H18.9091V2.4H21.2727V0H23.6364V2.4H26V4.8H23.6364V7.2H21.2727ZM2.36364 24C1.71364 24 1.157 23.7648 0.693729 23.2944C0.230457 22.824 -0.000785872 22.2592 2.00648e-06 21.6V7.2C2.00648e-06 6.54 0.231638 5.9748 0.694911 5.5044C1.15818 5.034 1.71443 4.7992 2.36364 4.8H6.08637L8.27273 2.4H15.3636V4.8H9.30682L7.15 7.2H2.36364V21.6H21.2727V10.8H23.6364V21.6C23.6364 22.26 23.4047 22.8252 22.9415 23.2956C22.4782 23.766 21.9219 24.0008 21.2727 24H2.36364ZM11.8182 19.8C13.2955 19.8 14.5513 19.2748 15.5858 18.2244C16.6203 17.174 17.1372 15.8992 17.1364 14.4C17.1364 12.9 16.6191 11.6248 15.5846 10.5744C14.5502 9.524 13.2947 8.9992 11.8182 9C10.3409 9 9.08503 9.5252 8.05055 10.5756C7.01606 11.626 6.49921 12.9008 6.5 14.4C6.5 15.9 7.01724 17.1752 8.05173 18.2256C9.08621 19.276 10.3417 19.8008 11.8182 19.8ZM11.8182 17.4C10.9909 17.4 10.2917 17.11 9.72046 16.53C9.14924 15.95 8.86364 15.24 8.86364 14.4C8.86364 13.56 9.14924 12.85 9.72046 12.27C10.2917 11.69 10.9909 11.4 11.8182 11.4C12.6455 11.4 13.3447 11.69 13.9159 12.27C14.4871 12.85 14.7727 13.56 14.7727 14.4C14.7727 15.24 14.4871 15.95 13.9159 16.53C13.3447 17.11 12.6455 17.4 11.8182 17.4Z" fill="#6C86E2"/>
</svg>
