<svg width="25" height="25" viewBox="0 0 25 25" fill="none" xmlns="http://www.w3.org/2000/svg">
<path id="chat" d="M7.80602 0.935056C18.5451 -3.38192 29.1413 8.06868 23.3711 18.4999C20.7497 23.2374 14.2384 27.0528 6.6562 23.4445L1.38542 24.9567C0.567935 25.1912 -0.188051 24.4351 0.0417887 23.6135C0.35611 22.4869 1.10154 19.8306 1.53761 18.3907C-1.73108 12.5341 0.473514 3.88208 7.80602 0.935056ZM7.47058 10.1673C7.47058 10.5977 7.81844 10.9471 8.24706 10.9471H16.6356C16.8415 10.9471 17.039 10.8649 17.1846 10.7187C17.3303 10.5724 17.4121 10.3741 17.4121 10.1673C17.4121 9.96046 17.3303 9.76211 17.1846 9.61587C17.039 9.46963 16.8415 9.38747 16.6356 9.38747H8.24706C7.81844 9.38747 7.47058 9.73682 7.47058 10.1673ZM8.24955 14.0501C8.04361 14.0501 7.84611 14.1322 7.70049 14.2785C7.55487 14.4247 7.47306 14.623 7.47306 14.8299C7.47306 15.0367 7.55487 15.235 7.70049 15.3813C7.84611 15.5275 8.04361 15.6097 8.24955 15.6097H14.1508C14.3568 15.6097 14.5543 15.5275 14.6999 15.3813C14.8455 15.235 14.9273 15.0367 14.9273 14.8299C14.9273 14.623 14.8455 14.4247 14.6999 14.2785C14.5543 14.1322 14.3568 14.0501 14.1508 14.0501H8.24955Z" fill="#526ED3"/>
</svg>
