<svg width="29" height="25" viewBox="0 0 29 25" fill="none" xmlns="http://www.w3.org/2000/svg">
<path id="ftiends" d="M8.7 11.7647C10.2383 11.7647 11.7135 11.145 12.8012 10.0418C13.8889 8.93865 14.5 7.44245 14.5 5.88235C14.5 4.32226 13.8889 2.82606 12.8012 1.7229C11.7135 0.619746 10.2383 0 8.7 0C7.16174 0 5.68649 0.619746 4.59878 1.7229C3.51107 2.82606 2.9 4.32226 2.9 5.88235C2.9 7.44245 3.51107 8.93865 4.59878 10.0418C5.68649 11.145 7.16174 11.7647 8.7 11.7647ZM21.75 11.7647C22.9037 11.7647 24.0101 11.2999 24.8259 10.4725C25.6417 9.64516 26.1 8.52301 26.1 7.35294C26.1 6.18287 25.6417 5.06072 24.8259 4.23335C24.0101 3.40599 22.9037 2.94118 21.75 2.94118C20.5963 2.94118 19.4899 3.40599 18.6741 4.23335C17.8583 5.06072 17.4 6.18287 17.4 7.35294C17.4 8.52301 17.8583 9.64516 18.6741 10.4725C19.4899 11.2999 20.5963 11.7647 21.75 11.7647ZM3.2625 14.7059C2.39723 14.7059 1.5674 15.0545 0.955564 15.675C0.343727 16.2955 0 17.1372 0 18.0147V18.3824C0 18.3824 0 25 8.7 25C17.4 25 17.4 18.3824 17.4 18.3824V18.0147C17.4 17.1372 17.0563 16.2955 16.4444 15.675C15.8326 15.0545 15.0028 14.7059 14.1375 14.7059H3.2625ZM21.75 22.7941C20.0521 22.7941 18.7514 22.5279 17.7553 22.1206C18.335 21.1282 18.6988 20.0216 18.8225 18.875C18.8366 18.7357 18.8458 18.5959 18.85 18.4559V18.0147C18.8518 16.7827 18.3831 15.5978 17.5421 14.7088C17.5914 14.7067 17.6407 14.7058 17.69 14.7059H25.81C26.656 14.7059 27.4674 15.0467 28.0657 15.6535C28.6639 16.2602 29 17.0831 29 17.9412C29 17.9412 29 22.7941 21.75 22.7941Z" fill="#526ED3"/>
</svg>
