<?xml version="1.0" encoding="utf-8"?>
<!-- Generator: Adobe Illustrator 27.0.0, SVG Export Plug-In . SVG Version: 6.00 Build 0)  -->
<svg version="1.1" id="Слой_1" xmlns="http://www.w3.org/2000/svg" xmlns:xlink="http://www.w3.org/1999/xlink" x="0px" y="0px"
	 viewBox="0 0 32 32" style="enable-background:new 0 0 32 32;" xml:space="preserve">
<style type="text/css">
	.st0{fill:#F2F2F2;}
	.st1{fill-rule:evenodd;clip-rule:evenodd;fill:#4285F4;}
	.st2{fill-rule:evenodd;clip-rule:evenodd;fill:#34A853;}
	.st3{fill-rule:evenodd;clip-rule:evenodd;fill:#FBBC05;}
	.st4{fill-rule:evenodd;clip-rule:evenodd;fill:#EA4335;}
</style>
<path class="st0" d="M32,16c0-8.8-7.2-16-16-16C7.2,0,0,7.2,0,16c0,8.8,7.2,16,16,16C24.8,32,32,24.8,32,16z"/>
<path class="st1" d="M23.8,16.2c0-0.6-0.1-1.1-0.1-1.6h-7.5v3.1h4.3c-0.2,1-0.7,1.8-1.6,2.4v2h2.6C23,20.7,23.8,18.6,23.8,16.2z"/>
<path class="st2" d="M16.1,24c2.2,0,4-0.7,5.3-1.9l-2.6-2c-0.7,0.5-1.6,0.8-2.7,0.8c-2.1,0-3.8-1.4-4.5-3.3H9v2.1
	C10.3,22.2,13,24,16.1,24z"/>
<path class="st3" d="M11.7,17.5c-0.2-0.5-0.3-1-0.3-1.5c0-0.5,0.1-1,0.3-1.5v-2.1H9c-0.5,1.1-0.9,2.3-0.9,3.6c0,1.3,0.3,2.5,0.9,3.6
	L11.7,17.5z"/>
<path class="st4" d="M16.1,11.2c1.2,0,2.2,0.4,3.1,1.2l2.3-2.3C20.1,8.8,18.3,8,16.1,8C13,8,10.3,9.8,9,12.4l2.7,2.1
	C12.3,12.6,14.1,11.2,16.1,11.2z"/>
</svg>
