<svg width="29" height="25" viewBox="0 0 29 25" fill="none" xmlns="http://www.w3.org/2000/svg">
<path id="group" d="M18.875 16.6595C20.002 16.6595 20.9167 17.5925 20.9167 18.742V21.1243L20.9073 21.2528C20.5457 23.7839 18.3173 25 14.5782 25C10.853 25 8.5885 23.7981 8.09967 21.2968L8.08333 21.1219V18.742C8.08333 17.5925 8.998 16.6595 10.125 16.6595H18.875ZM19.4513 9.51973H26.4583C27.5853 9.51973 28.5 10.4527 28.5 11.6022V13.9845L28.4907 14.113C28.129 16.6441 25.9007 17.8602 22.1615 17.8602L21.9655 17.8578C21.7857 17.2057 21.4119 16.6264 20.8958 16.2C20.3797 15.7735 19.7466 15.5208 19.0838 15.4767L18.875 15.4696H17.7993C18.409 14.9682 18.9007 14.3338 19.2382 13.613C19.5758 12.8922 19.7507 12.1035 19.75 11.3047C19.75 10.6788 19.645 10.079 19.4513 9.51973ZM2.54167 9.51973H9.54867C9.355 10.079 9.25 10.6788 9.25 11.3047C9.25 12.8873 9.92433 14.3117 10.9953 15.2911L11.2007 15.4696H10.125C8.65267 15.4696 7.41133 16.481 7.03333 17.8614L6.99483 17.8602C3.26967 17.8602 1.00517 16.6583 0.516333 14.157L0.5 13.9821V11.6022C0.5 10.4527 1.41467 9.51973 2.54167 9.51973ZM14.5 7.1398C15.583 7.1398 16.6216 7.5786 17.3874 8.35966C18.1531 9.14073 18.5833 10.2001 18.5833 11.3047C18.5833 12.4093 18.1531 13.4686 17.3874 14.2497C16.6216 15.0308 15.583 15.4696 14.5 15.4696C13.417 15.4696 12.3784 15.0308 11.6126 14.2497C10.8469 13.4686 10.4167 12.4093 10.4167 11.3047C10.4167 10.2001 10.8469 9.14073 11.6126 8.35966C12.3784 7.5786 13.417 7.1398 14.5 7.1398ZM22.0833 0C23.1663 0 24.2049 0.438799 24.9707 1.21987C25.7365 2.00093 26.1667 3.06029 26.1667 4.16488C26.1667 5.26948 25.7365 6.32883 24.9707 7.1099C24.2049 7.89096 23.1663 8.32976 22.0833 8.32976C21.0004 8.32976 19.9618 7.89096 19.196 7.1099C18.4302 6.32883 18 5.26948 18 4.16488C18 3.06029 18.4302 2.00093 19.196 1.21987C19.9618 0.438799 21.0004 0 22.0833 0ZM6.91667 0C7.99963 0 9.03825 0.438799 9.80402 1.21987C10.5698 2.00093 11 3.06029 11 4.16488C11 5.26948 10.5698 6.32883 9.80402 7.1099C9.03825 7.89096 7.99963 8.32976 6.91667 8.32976C5.8337 8.32976 4.79509 7.89096 4.02931 7.1099C3.26354 6.32883 2.83333 5.26948 2.83333 4.16488C2.83333 3.06029 3.26354 2.00093 4.02931 1.21987C4.79509 0.438799 5.8337 0 6.91667 0Z" fill="#526ED3"/>
</svg>
