<svg width="19" height="24" viewBox="0 0 19 24" fill="none" xmlns="http://www.w3.org/2000/svg">
<path id="icon" d="M9.5 12C10.1531 12 10.7124 11.7648 11.1779 11.2944C11.6434 10.824 11.8758 10.2592 11.875 9.6C11.875 8.94 11.6423 8.3748 11.1767 7.9044C10.7112 7.434 10.1523 7.1992 9.5 7.2C8.84688 7.2 8.28756 7.4352 7.82206 7.9056C7.35656 8.376 7.12421 8.9408 7.125 9.6C7.125 10.26 7.35775 10.8252 7.82325 11.2956C8.28875 11.766 8.84767 12.0008 9.5 12ZM9.5 24C6.31354 21.26 3.93379 18.7152 2.36075 16.3656C0.787708 14.016 0.000791667 11.8408 0 9.84C0 6.84 0.955146 4.45 2.86544 2.67C4.77573 0.89 6.98725 0 9.5 0C12.0135 0 14.2255 0.89 16.1357 2.67C18.046 4.45 19.0008 6.84 19 9.84C19 11.84 18.2131 14.0152 16.6392 16.3656C15.0654 18.716 12.6857 21.2608 9.5 24Z" fill="#526ED3"/>
</svg>
