<svg width="24" height="24" viewBox="0 0 24 24" fill="none" xmlns="http://www.w3.org/2000/svg">
<path id="Vector" d="M24 2.54971V17.6242C23.9998 18.7471 23.6325 19.8386 22.9553 20.7293C22.278 21.62 21.3286 22.2603 20.2542 22.5507C19.1799 22.8412 18.0406 22.7656 17.0131 22.3358C15.9856 21.9059 15.1273 21.1457 14.5713 20.1732C14.0153 19.2006 13.7927 18.07 13.9379 16.9567C14.0832 15.8434 14.5883 14.8096 15.3748 14.0156C16.1613 13.2216 17.1853 12.7118 18.288 12.5653C19.3907 12.4188 20.5105 12.6437 21.4737 13.2051V7.65232L8.84198 9.77703V18.8995C8.84198 18.976 8.83567 19.0487 8.82304 19.1214C8.91372 20.1021 8.68058 21.0855 8.15993 21.9185C7.63929 22.7515 6.86038 23.3872 5.94455 23.7266C5.02873 24.066 4.02744 24.0901 3.09667 23.795C2.1659 23.4999 1.35794 22.9023 0.798654 22.0953C0.239371 21.2883 -0.0398186 20.3171 0.0045837 19.3332C0.048986 18.3492 0.414486 17.4077 1.04414 16.6554C1.67379 15.903 2.53224 15.3821 3.48572 15.1737C4.43921 14.9653 5.43419 15.0812 6.31565 15.5033V4.67569C6.31557 4.0719 6.52765 3.48766 6.91415 3.02691C7.30066 2.56616 7.83651 2.25878 8.4264 2.15945L21.0581 0.0347476C21.4199 -0.02618 21.7906 -0.00681253 22.1443 0.0915035C22.498 0.18982 22.8262 0.364725 23.1062 0.604062C23.3861 0.843399 23.6111 1.14143 23.7655 1.47742C23.9198 1.81342 23.9999 2.17933 24 2.54971ZM4.4209 17.6242C3.91838 17.6242 3.43644 17.8257 3.0811 18.1845C2.72577 18.5432 2.52614 19.0298 2.52614 19.5372C2.52614 20.0445 2.72577 20.5311 3.0811 20.8899C3.43644 21.2486 3.91838 21.4502 4.4209 21.4502C4.92341 21.4502 5.40535 21.2486 5.76069 20.8899C6.11602 20.5311 6.31565 20.0445 6.31565 19.5372C6.31565 19.0298 6.11602 18.5432 5.76069 18.1845C5.40535 17.8257 4.92341 17.6242 4.4209 17.6242ZM18.9473 15.0735C18.2773 15.0735 17.6347 15.3422 17.1609 15.8206C16.6872 16.2989 16.421 16.9477 16.421 17.6242C16.421 18.3006 16.6872 18.9494 17.1609 19.4278C17.6347 19.9061 18.2773 20.1748 18.9473 20.1748C19.6174 20.1748 20.2599 19.9061 20.7337 19.4278C21.2075 18.9494 21.4737 18.3006 21.4737 17.6242C21.4737 16.9477 21.2075 16.2989 20.7337 15.8206C20.2599 15.3422 19.6174 15.0735 18.9473 15.0735ZM21.4737 2.54971L8.84198 4.67569V7.19192L21.4737 5.06594V2.54971Z" fill="#6C86E2"/>
</svg>
