<svg width="25" height="25" viewBox="0 0 25 25" fill="none" xmlns="http://www.w3.org/2000/svg">
<path id="music" d="M22.5 0H7.5C6.125 0 5 1.125 5 2.5V17.5C5 18.875 6.125 20 7.5 20H22.5C23.875 20 25 18.875 25 17.5V2.5C25 1.125 23.875 0 22.5 0ZM20 6.25H16.25V13.125C16.25 13.9538 15.9208 14.7487 15.3347 15.3347C14.7487 15.9208 13.9538 16.25 13.125 16.25C12.2962 16.25 11.5013 15.9208 10.9153 15.3347C10.3292 14.7487 10 13.9538 10 13.125C10 12.2962 10.3292 11.5013 10.9153 10.9153C11.5013 10.3292 12.2962 10 13.125 10C13.8375 10 14.475 10.2375 15 10.6375V3.75H20V6.25ZM2.5 5H0V22.5C0 23.875 1.125 25 2.5 25H20V22.5H2.5V5Z" fill="#526ED3"/>
</svg>
