<svg width="25" height="25" viewBox="0 0 25 25" fill="none" xmlns="http://www.w3.org/2000/svg">
<g id="news">
<path d="M23.1208 5H22.0042L22.0012 5.00141L22 5.00482V21.2857C22 21.7404 22.158 22.1764 22.4393 22.4979C22.7206 22.8194 23.1022 23 23.5 23C23.8978 23 24.2794 22.8194 24.5607 22.4979C24.842 22.1764 25 21.7404 25 21.2857V7.14768C25 6.57808 24.802 6.03181 24.4496 5.62904C24.0972 5.22627 23.6192 5 23.1208 5Z" fill="#526ED3"/>
<path d="M19.36 21.4286V2.23214C19.36 1.93901 19.3031 1.64875 19.1925 1.37794C19.082 1.10712 18.9199 0.861053 18.7156 0.653779C18.5113 0.446506 18.2688 0.282087 18.0019 0.169912C17.735 0.0577361 17.4489 0 17.16 0H2.2C1.61652 0 1.05695 0.235171 0.644365 0.653779C0.231785 1.07239 0 1.64014 0 2.23214V21.875C0 22.7038 0.324499 23.4987 0.902111 24.0847C1.47972 24.6708 2.26313 25 3.08 25H21.9367C21.9451 25.0001 21.9533 24.9985 21.961 24.9953C21.9687 24.9921 21.9757 24.9873 21.9816 24.9814C21.9875 24.9754 21.9922 24.9683 21.9953 24.9605C21.9985 24.9527 22.0001 24.9443 22 24.9358C22 24.9218 21.9954 24.9082 21.9869 24.8971C21.9785 24.886 21.9666 24.878 21.9532 24.8744C21.2088 24.6673 20.552 24.2179 20.0836 23.5955C19.6151 22.973 19.3609 22.2118 19.36 21.4286ZM3.52 5.35714C3.52 5.12034 3.61271 4.89324 3.77775 4.7258C3.94278 4.55835 4.16661 4.46429 4.4 4.46429H7.92C8.15339 4.46429 8.37722 4.55835 8.54225 4.7258C8.70729 4.89324 8.8 5.12034 8.8 5.35714V8.92857C8.8 9.16537 8.70729 9.39247 8.54225 9.55992C8.37722 9.72736 8.15339 9.82143 7.92 9.82143H4.4C4.16661 9.82143 3.94278 9.72736 3.77775 9.55992C3.61271 9.39247 3.52 9.16537 3.52 8.92857V5.35714ZM14.96 20.5357H4.42475C3.9512 20.5357 3.54475 20.1663 3.5211 19.6858C3.51537 19.5651 3.53385 19.4445 3.57543 19.3312C3.61701 19.2179 3.68082 19.1144 3.763 19.0269C3.84518 18.9394 3.94401 18.8698 4.0535 18.8222C4.163 18.7746 4.28088 18.75 4.4 18.75H14.9352C15.4088 18.75 15.8152 19.1194 15.8389 19.5999C15.8446 19.7206 15.8261 19.8413 15.7846 19.9545C15.743 20.0678 15.6792 20.1713 15.597 20.2588C15.5148 20.3463 15.416 20.416 15.3065 20.4636C15.197 20.5112 15.0791 20.5357 14.96 20.5357ZM14.96 16.9643H4.42475C3.9512 16.9643 3.54475 16.5949 3.5211 16.1144C3.51537 15.9937 3.53385 15.873 3.57543 15.7598C3.61701 15.6465 3.68082 15.543 3.763 15.4555C3.84518 15.368 3.94401 15.2983 4.0535 15.2507C4.163 15.2031 4.28088 15.1786 4.4 15.1786H14.9352C15.4088 15.1786 15.8152 15.548 15.8389 16.0285C15.8446 16.1492 15.8261 16.2698 15.7846 16.3831C15.743 16.4963 15.6792 16.5999 15.597 16.6874C15.5148 16.7749 15.416 16.8445 15.3065 16.8921C15.197 16.9397 15.0791 16.9643 14.96 16.9643ZM14.96 13.3929H4.42475C3.9512 13.3929 3.54475 13.0234 3.5211 12.543C3.51537 12.4222 3.53385 12.3016 3.57543 12.1883C3.61701 12.0751 3.68082 11.9716 3.763 11.8841C3.84518 11.7966 3.94401 11.7269 4.0535 11.6793C4.163 11.6317 4.28088 11.6072 4.4 11.6071H14.9352C15.4088 11.6071 15.8152 11.9766 15.8389 12.457C15.8446 12.5778 15.8261 12.6984 15.7846 12.8117C15.743 12.9249 15.6792 13.0284 15.597 13.1159C15.5148 13.2034 15.416 13.2731 15.3065 13.3207C15.197 13.3683 15.0791 13.3928 14.96 13.3929ZM14.96 9.82143H11.4647C10.9912 9.82143 10.5847 9.45201 10.5611 8.97154C10.5554 8.85082 10.5739 8.73017 10.6154 8.61691C10.657 8.50365 10.7208 8.40013 10.803 8.31263C10.8852 8.22514 10.984 8.15548 11.0935 8.10787C11.203 8.06027 11.3209 8.03572 11.44 8.03571H14.9352C15.4088 8.03571 15.8152 8.40513 15.8389 8.8856C15.8446 9.00632 15.8261 9.12697 15.7846 9.24023C15.743 9.35349 15.6792 9.45701 15.597 9.54451C15.5148 9.63201 15.416 9.70167 15.3065 9.74927C15.197 9.79687 15.0791 9.82142 14.96 9.82143ZM14.96 6.25H11.4647C10.9912 6.25 10.5847 5.88058 10.5611 5.40011C10.5554 5.27939 10.5739 5.15874 10.6154 5.04548C10.657 4.93222 10.7208 4.8287 10.803 4.74121C10.8852 4.65371 10.984 4.58405 11.0935 4.53645C11.203 4.48885 11.3209 4.4643 11.44 4.46429H14.9352C15.4088 4.46429 15.8152 4.8337 15.8389 5.31417C15.8446 5.4349 15.8261 5.55554 15.7846 5.6688C15.743 5.78206 15.6792 5.88558 15.597 5.97308C15.5148 6.06058 15.416 6.13024 15.3065 6.17784C15.197 6.22544 15.0791 6.24999 14.96 6.25Z" fill="#526ED3"/>
</g>
</svg>
