<svg width="24" height="24" viewBox="0 0 24 24" fill="none" xmlns="http://www.w3.org/2000/svg">
<path id="Vector" d="M10.8182 16.285C10.4141 16.5503 10 16.5707 9.57576 16.3462C9.15152 16.1218 8.93939 15.7646 8.93939 15.2749V8.72455C8.93939 8.2348 9.15152 7.87769 9.57576 7.65323C10 7.42876 10.4141 7.44917 10.8182 7.71445L15.8485 10.959C16.0303 11.0814 16.1669 11.2345 16.2582 11.4181C16.3495 11.6018 16.3947 11.7957 16.3939 11.9997C16.3939 12.2038 16.3487 12.3976 16.2582 12.5813C16.1677 12.765 16.0311 12.918 15.8485 13.0404L10.8182 16.285ZM9.36364 23.9679C8.65657 23.8046 7.97455 23.5904 7.31758 23.3251C6.66061 23.0598 6.01939 22.7231 5.39394 22.315C5.07071 22.1109 4.89414 21.8253 4.86424 21.4579C4.83434 21.0906 4.9604 20.7641 5.24242 20.4785C5.44445 20.2744 5.70222 20.1569 6.01576 20.1258C6.32929 20.0948 6.61697 20.1613 6.87879 20.3254C7.32323 20.6111 7.78263 20.8511 8.25697 21.0453C8.73131 21.2396 9.22141 21.3975 9.72727 21.5192C10.0101 21.6008 10.2477 21.7591 10.44 21.9942C10.6323 22.2293 10.7281 22.4893 10.7273 22.7741C10.7273 23.1823 10.5911 23.5039 10.3188 23.7389C10.0465 23.974 9.72808 24.0503 9.36364 23.9679ZM3.51515 18.7337C3.23232 19.0194 2.91394 19.1472 2.56 19.117C2.20606 19.0868 1.92849 18.9182 1.72727 18.6113C1.32323 18.0195 0.98505 17.3922 0.712727 16.7294C0.440404 16.0667 0.22303 15.3675 0.0606062 14.6321C-0.0404039 14.2648 0.0254545 13.9383 0.258182 13.6526C0.490909 13.3669 0.808889 13.2241 1.21212 13.2241C1.49495 13.2241 1.75758 13.3261 2 13.5302C2.24242 13.7342 2.40404 13.9791 2.48485 14.2648C2.60606 14.7954 2.76768 15.2953 2.9697 15.7646C3.17172 16.234 3.40404 16.6931 3.66667 17.1421C3.82828 17.3869 3.89414 17.6624 3.86424 17.9685C3.83434 18.2746 3.71798 18.5297 3.51515 18.7337ZM1.24242 10.7754C0.838384 10.7754 0.515152 10.6325 0.272727 10.3468C0.0303031 10.0611 -0.0505051 9.73465 0.030303 9.36734C0.191919 8.65313 0.414141 7.95401 0.69697 7.27C0.979798 6.58599 1.32323 5.9485 1.72727 5.35754C1.92929 5.05145 2.20727 4.8882 2.56121 4.8678C2.91515 4.84739 3.23313 4.98003 3.51515 5.26572C3.71717 5.46978 3.83354 5.72485 3.86424 6.03094C3.89495 6.33704 3.82909 6.61252 3.66667 6.85739C3.40404 7.28592 3.17172 7.73975 2.9697 8.21888C2.76768 8.69802 2.60606 9.20327 2.48485 9.73465C2.40404 10.0203 2.24727 10.2652 2.01455 10.4693C1.78182 10.6733 1.52444 10.7754 1.24242 10.7754ZM14.4848 23.9373C14.1212 24.0189 13.8081 23.9475 13.5455 23.723C13.2828 23.4986 13.1515 23.1925 13.1515 22.8047C13.1515 22.5191 13.2477 22.2538 13.44 22.0089C13.6323 21.764 13.8695 21.6008 14.1515 21.5192C16.3131 20.9478 18.0909 19.7899 19.4848 18.0456C20.8788 16.3013 21.5758 14.286 21.5758 11.9997C21.5758 9.71424 20.8788 7.68384 19.4848 5.90851C18.0909 4.13318 16.3131 2.98023 14.1515 2.44968C13.8687 2.36805 13.6311 2.2097 13.4388 1.97462C13.2465 1.73955 13.1507 1.47957 13.1515 1.1947C13.1515 0.806987 13.2881 0.495998 13.5612 0.261737C13.8343 0.0274748 14.1523 -0.0492523 14.5152 0.0315558C17.2828 0.643738 19.5556 2.06196 21.3333 4.28622C23.1111 6.51049 24 9.08165 24 11.9997C24 14.8974 23.1063 17.4481 21.3188 19.652C19.5313 21.8559 17.2533 23.2843 14.4848 23.9373ZM6.78788 3.70465C6.52525 3.8679 6.24727 3.92912 5.95394 3.88831C5.66061 3.84749 5.41333 3.72506 5.21212 3.521C4.92929 3.23531 4.80283 2.90881 4.83273 2.5415C4.86263 2.17419 5.0396 1.88851 5.36364 1.68445C5.9899 1.27633 6.63636 0.939627 7.30303 0.674348C7.9697 0.409068 8.65657 0.194804 9.36364 0.0315558C9.72727 -0.0500686 10.0457 0.0266585 10.3188 0.261737C10.5919 0.496815 10.7281 0.807803 10.7273 1.1947C10.7273 1.48039 10.6263 1.74077 10.4242 1.97585C10.2222 2.21093 9.9798 2.36887 9.69697 2.44968C9.19192 2.57211 8.69697 2.74067 8.21212 2.95534C7.72727 3.17001 7.25253 3.4206 6.78788 3.70465Z" fill="#6C86E2"/>
</svg>
