<svg width="25" height="25" viewBox="0 0 25 25" fill="none" xmlns="http://www.w3.org/2000/svg">
<path id="prifole" d="M12.5 21.5C9.375 21.5 6.6125 19.9 5 17.5C5.0375 15 10 13.625 12.5 13.625C15 13.625 19.9625 15 20 17.5C19.1736 18.7305 18.0573 19.7389 16.7495 20.4365C15.4416 21.134 13.9823 21.4992 12.5 21.5ZM12.5 3.75C13.4946 3.75 14.4484 4.14509 15.1517 4.84835C15.8549 5.55161 16.25 6.50544 16.25 7.5C16.25 8.49456 15.8549 9.44839 15.1517 10.1517C14.4484 10.8549 13.4946 11.25 12.5 11.25C11.5054 11.25 10.5516 10.8549 9.84835 10.1517C9.14509 9.44839 8.75 8.49456 8.75 7.5C8.75 6.50544 9.14509 5.55161 9.84835 4.84835C10.5516 4.14509 11.5054 3.75 12.5 3.75ZM12.5 0C10.8585 0 9.23303 0.323322 7.71646 0.951506C6.19989 1.57969 4.8219 2.50043 3.66117 3.66117C1.31696 6.00537 0 9.18479 0 12.5C0 15.8152 1.31696 18.9946 3.66117 21.3388C4.8219 22.4996 6.19989 23.4203 7.71646 24.0485C9.23303 24.6767 10.8585 25 12.5 25C15.8152 25 18.9946 23.683 21.3388 21.3388C23.683 18.9946 25 15.8152 25 12.5C25 5.5875 19.375 0 12.5 0Z" fill="#526ED3"/>
</svg>
