<svg width="32" height="26" viewBox="0 0 32 26" fill="none" xmlns="http://www.w3.org/2000/svg">
<path id="icon" d="M31.1767 11.6881L20.105 0.818783C19.9503 0.666682 19.753 0.563052 19.5383 0.520999C19.3235 0.478945 19.1009 0.500357 18.8985 0.582526C18.6962 0.664696 18.5232 0.803931 18.4014 0.982625C18.2797 1.16132 18.2146 1.37144 18.2145 1.58643V7.06864C14.6246 7.37026 10.6595 9.09577 7.39755 11.8117C3.46988 15.0834 1.02443 19.2993 0.510988 23.6824C0.470864 24.0231 0.541243 24.3676 0.712109 24.6669C0.882976 24.9661 1.14562 25.2048 1.46267 25.349C1.77972 25.4932 2.13502 25.5355 2.47801 25.47C2.82099 25.4044 3.13418 25.2344 3.37301 24.984C4.89536 23.393 10.3122 18.3619 18.2145 17.9189V23.3251C18.2146 23.54 18.2797 23.7502 18.4014 23.9289C18.5232 24.1075 18.6962 24.2468 18.8985 24.329C19.1009 24.4111 19.3235 24.4325 19.5383 24.3905C19.753 24.3484 19.9503 24.2448 20.105 24.0927L31.1767 13.2234C31.3837 13.0196 31.5 12.7436 31.5 12.4557C31.5 12.1679 31.3837 11.8919 31.1767 11.6881ZM20.4289 20.7015V16.8035C20.4289 16.5152 20.3122 16.2387 20.1046 16.0349C19.897 15.831 19.6153 15.7165 19.3217 15.7165C15.4356 15.7165 11.6504 16.7124 8.07153 18.6784C6.24879 19.6841 4.55049 20.8932 3.01041 22.2816C3.8131 19.0425 5.83645 15.9625 8.82994 13.4693C12.0435 10.7941 15.9656 9.19495 19.3217 9.19495C19.6153 9.19495 19.897 9.08043 20.1046 8.87659C20.3122 8.67275 20.4289 8.39629 20.4289 8.10802V4.21137L28.8281 12.4557L20.4289 20.7015Z" fill="#6D6F7A"/>
</svg>
