<?xml version="1.0" encoding="UTF-8"?>
<svg id="_Слой_2" data-name="Слой 2" xmlns="http://www.w3.org/2000/svg" viewBox="0 0 72 72">
  <g id="_Слой_1-2" data-name="Слой 1">
    <g id="arrow">
      <path d="M72,36c0,19.9-16.1,36-36,36S0,55.9,0,36,16.1,0,36,0s36,16.1,36,36Z" style="fill: #fcfcff;"/>
      <path d="M38.8,46.2c-.4-.4-.5-.9-.5-1.4s.2-1,.6-1.4l5.2-5.5H23.4c-.5,0-1-.2-1.3-.6-.4-.4-.5-.8-.5-1.4,0-.5,.2-1,.5-1.4,.4-.4,.8-.6,1.3-.6h20.6l-5.3-5.5c-.4-.4-.6-.8-.6-1.4,0-.5,.2-1,.6-1.4,.4-.4,.8-.6,1.3-.6s.9,.2,1.3,.6l8.5,8.9c.2,.2,.3,.4,.4,.6,.1,.2,.1,.5,.1,.7,0,.3,0,.5-.1,.7s-.2,.4-.4,.6l-8.5,8.9c-.3,.4-.8,.5-1.3,.5-.4,.3-.8,.1-1.2-.3Z" style="fill: #526ed3;"/>
    </g>
  </g>
</svg>