<?xml version="1.0" encoding="utf-8"?>
<!-- Generator: Adobe Illustrator 27.0.0, SVG Export Plug-In . SVG Version: 6.00 Build 0)  -->
<svg version="1.1" id="Слой_1" xmlns="http://www.w3.org/2000/svg" xmlns:xlink="http://www.w3.org/1999/xlink" x="0px" y="0px"
	 viewBox="0 0 72 72" style="enable-background:new 0 0 72 72;" xml:space="preserve">
<style type="text/css">
	.st0{fill:#FCFCFF;}
	.st1{fill:#526ED3;}
</style>
<g id="arrow">
	<path class="st0" d="M72,36c0,19.9-16.1,36-36,36S0,55.9,0,36S16.1,0,36,0S72,16.1,72,36z"/>
	<path class="st1" d="M38.8,46.2c-0.4-0.4-0.5-0.9-0.5-1.4c0-0.5,0.2-1,0.6-1.4l5.2-5.5H23.4c-0.5,0-1-0.2-1.3-0.6
		c-0.4-0.4-0.5-0.8-0.5-1.4c0-0.5,0.2-1,0.5-1.4c0.4-0.4,0.8-0.6,1.3-0.6h20.6l-5.3-5.5c-0.4-0.4-0.6-0.8-0.6-1.4
		c0-0.5,0.2-1,0.6-1.4c0.4-0.4,0.8-0.6,1.3-0.6c0.5,0,0.9,0.2,1.3,0.6l8.5,8.9c0.2,0.2,0.3,0.4,0.4,0.6c0.1,0.2,0.1,0.5,0.1,0.7
		c0,0.3,0,0.5-0.1,0.7c-0.1,0.2-0.2,0.4-0.4,0.6l-8.5,8.9c-0.3,0.4-0.8,0.5-1.3,0.5C39.6,46.8,39.2,46.6,38.8,46.2z"/>
</g>
</svg>
