<svg width="25" height="25" viewBox="0 0 25 25" fill="none" xmlns="http://www.w3.org/2000/svg">
<path id="video" d="M13.8125 14.375L19 11.0625C19.3958 10.8125 19.5937 10.4583 19.5937 10C19.5937 9.54167 19.3958 9.1875 19 8.9375L13.8125 5.625C13.3958 5.33333 12.9687 5.3125 12.5312 5.5625C12.0937 5.8125 11.875 6.17708 11.875 6.65625V13.3437C11.875 13.8229 12.0937 14.1875 12.5312 14.4375C12.9687 14.6875 13.3958 14.6667 13.8125 14.375ZM7.5 20C6.8125 20 6.22375 19.755 5.73375 19.265C5.24375 18.775 4.99917 18.1867 5 17.5V2.5C5 1.8125 5.245 1.22375 5.735 0.733752C6.225 0.243752 6.81333 -0.000831211 7.5 2.12224e-06H22.5C23.1875 2.12224e-06 23.7762 0.245002 24.2662 0.735002C24.7562 1.225 25.0008 1.81333 25 2.5V17.5C25 18.1875 24.755 18.7762 24.265 19.2662C23.775 19.7562 23.1867 20.0008 22.5 20H7.5ZM2.5 25C1.8125 25 1.22375 24.755 0.733752 24.265C0.243752 23.775 -0.000831211 23.1867 2.12224e-06 22.5V6.25C2.12224e-06 5.89583 0.120002 5.59875 0.360002 5.35875C0.600002 5.11875 0.896669 4.99917 1.25 5C1.60417 5 1.90125 5.12 2.14125 5.36C2.38125 5.6 2.50083 5.89667 2.5 6.25V22.5H18.75C19.1042 22.5 19.4012 22.62 19.6412 22.86C19.8812 23.1 20.0008 23.3967 20 23.75C20 24.1042 19.88 24.4012 19.64 24.6412C19.4 24.8812 19.1033 25.0008 18.75 25H2.5Z" fill="#526ED3"/>
</svg>
