<?xml version="1.0" encoding="utf-8"?>
<!-- Generator: Adobe Illustrator 27.0.0, SVG Export Plug-In . SVG Version: 6.00 Build 0)  -->
<svg version="1.1" id="Слой_1" xmlns="http://www.w3.org/2000/svg" xmlns:xlink="http://www.w3.org/1999/xlink" x="0px" y="0px"
	 viewBox="0 0 24 24" style="enable-background:new 0 0 24 24;" xml:space="preserve">
<style type="text/css">
	.st0{fill:#FC3F1D;}
	.st1{fill:#FFFFFF;}
</style>
<path class="st0" d="M0,12C0,5.4,5.4,0,12,0c6.6,0,12,5.4,12,12s-5.4,12-12,12C5.4,24,0,18.6,0,12z"/>
<path class="st1" d="M13.3,7.7h-0.9c-1.7,0-2.6,0.9-2.6,2.1c0,1.4,0.6,2.1,1.9,3l1,0.7l-3,4.5H7.5l2.7-4c-1.6-1.1-2.4-2.2-2.4-4
	c0-2.3,1.6-3.8,4.6-3.8h3v11.9h-2.1V7.7z"/>
</svg>
